<?xml version="1.0" encoding="UTF-8"?>
<svg width="128px" height="43px" viewBox="0 0 128 43" version="1.1" xmlns="http://www.w3.org/2000/svg" xmlns:xlink="http://www.w3.org/1999/xlink">
    <!-- Generator: Sketch 49.2 (51160) - http://www.bohemiancoding.com/sketch -->
    <title>Page 1</title>
    <desc>Created with Sketch.</desc>
    <defs>
        <polygon id="path-1" points="0.279428571 0.669222222 39.2908571 0.669222222 39.2908571 37.9243519 0.279428571 37.9243519"></polygon>
        <polygon id="path-3" points="0.137275 0.256406452 16.6704833 0.256406452 16.6704833 22 0.137275 22"></polygon>
    </defs>
    <g id="馥閱" stroke="none" stroke-width="1" fill="none" fill-rule="evenodd">
        <g id="00-首頁" transform="translate(-184.000000, -41.000000)">
            <g id="Group-21" transform="translate(0.000000, -1.000000)">
                <g id="Page-1" transform="translate(184.000000, 42.000000)">
                    <g id="Group-3" transform="translate(72.000000, 0.000000)">
                        <mask id="mask-2" fill="white">
                            <use xlink:href="#path-1"></use>
                        </mask>
                        <g id="Clip-2"></g>
                        <path d="M23.178,28.1928333 L20.6022857,27.9310556 C20.7915714,27.7572407 21.0315714,27.5609074 21.3172857,27.3420556 C21.6037143,27.1246111 21.9372857,26.9282778 22.3194286,26.7523519 C22.6994286,26.578537 23.0351429,26.4476481 23.3208571,26.3596852 C23.6072857,26.2738333 23.8444286,26.1858704 24.0365714,26.0979074 L23.178,28.1928333 Z M21.4608571,31.0730926 C21.078,31.2469074 20.6737143,31.2898333 20.2444286,31.2039815 C19.8151429,31.1160185 19.5037143,30.9196852 19.3137143,30.6149815 C19.1215714,30.3081667 18.9787143,30.0259815 18.8844286,29.7642037 C19.0744286,29.7642037 19.3137143,29.8064259 19.6001429,29.8950926 C19.8865714,29.9809444 20.2194286,30.0689074 20.6022857,30.1568704 C20.9815714,30.2427222 21.3172857,30.3306852 21.6037143,30.4186481 C21.8894286,30.4186481 22.1265714,30.4615741 22.3194286,30.549537 C22.1265714,30.7233519 21.8401429,30.8971667 21.4608571,31.0730926 Z M22.8915714,18.7660185 L21.4608571,20.598463 L20.888,18.7660185 L22.8915714,18.7660185 Z M22.8915714,13.2672778 L21.7472857,15.1004259 L21.7472857,13.2672778 L22.8915714,13.2672778 Z M21.3887143,8.81494444 C21.6258571,8.38005556 21.9372857,7.98668519 22.3194286,7.63694444 C22.6994286,7.37516667 22.9858571,7.15842593 23.178,6.9825 L23.178,7.24427778 L23.178,7.5715 L23.178,7.96416667 L23.178,8.29138889 C23.178,8.46731481 23.2001429,8.68475926 23.2494286,8.94653704 C23.2965714,9.20831481 23.2965714,9.51512963 23.2494286,9.86275926 C23.2001429,10.2125 23.1287143,10.5172037 23.0351429,10.7796852 C22.9387143,11.0407593 22.7958571,11.2603148 22.6051429,11.4341296 L21.4608571,11.4341296 L21.4608571,11.2377963 L21.4608571,10.9098704 C21.268,10.6487963 21.1501429,10.3433889 21.1022857,9.99364815 C21.0537143,9.64601852 21.1501429,9.25335185 21.3887143,8.81494444 Z M12.3008571,22.4316111 C12.2051429,22.607537 12.1087143,22.8038704 12.0151429,23.0213148 C11.9187143,23.2401667 11.8715714,23.524463 11.8715714,23.8720926 C11.7758571,24.1338704 11.7287143,24.3956481 11.7287143,24.6581296 L11.7287143,25.3125741 C11.5365714,25.1387593 11.2744286,24.9649444 10.9415714,24.7890185 C10.6058571,24.6152037 10.2258571,24.5272407 9.79657143,24.5272407 C9.36728571,24.5272407 8.98442857,24.5926852 8.65157143,24.7228704 C8.31585714,24.8537593 8.008,24.9649444 7.72157143,25.0507963 C7.72157143,24.9649444 7.74371429,24.8987963 7.793,24.8537593 C7.83942857,24.8108333 7.91085714,24.7890185 8.008,24.7890185 C8.008,24.4406852 8.10157143,24.0480185 8.29371429,23.6103148 C8.48371429,23.1747222 8.86657143,22.8249815 9.43871429,22.5632037 C10.0108571,22.3007222 10.5837143,22.2148704 11.1558571,22.3007222 C11.6322857,22.3007222 12.0151429,22.3457593 12.3008571,22.4316111 Z M11.5858571,27.5383889 C11.393,27.9760926 11.0601429,28.4546111 10.5837143,28.9781667 C10.1051429,29.5017222 9.65371429,29.960537 9.22371429,30.3532037 C8.79442857,30.7458704 8.48371429,31.0730926 8.29371429,31.3348704 C8.19728571,30.9851296 8.10157143,30.592463 8.008,30.1568704 C7.91085714,29.7212778 7.86442857,29.1970185 7.86442857,28.5855 C7.76871429,27.9760926 7.72157143,27.4300185 7.72157143,26.9486852 L7.72157143,25.8361296 L9.43871429,26.3596852 L9.72514286,26.8832407 L9.43871429,28.1928333 L11.7287143,26.6221667 C11.823,26.8832407 11.7758571,27.1907593 11.5858571,27.5383889 Z M35.9708571,33.9118333 C36.2194286,32.4002778 35.8987143,29.9098704 36.0708571,28.3406111 C36.2615714,26.6833889 36.3572857,24.7193519 36.3572857,22.4492037 C36.2615714,20.180463 36.1651429,18.2164259 36.0708571,16.5570926 C35.9751429,14.8998704 35.928,13.5459444 35.928,12.4988333 C36.118,12.2363519 36.1651429,11.8007593 36.0708571,11.1892407 C35.9751429,10.6656852 36.8522857,10.1421296 36.3765714,9.61787037 C35.8972857,9.18227778 35.4208571,9.05138889 34.9444286,9.2252037 C34.5622857,9.48698148 34.2294286,9.87964815 33.943,10.4039074 C33.8465714,11.5389815 33.7287143,12.9569444 33.5851429,14.6585 C33.4422857,16.3607593 33.3458571,18.3902407 33.2987143,20.7469444 C33.2494286,23.1036481 33.178,25.1556481 33.0844286,26.9008333 C32.9944286,28.5306111 32.9051429,31.3193889 32.8172857,32.6782407 C31.9358571,32.1793148 31.2101429,31.7732778 30.9058571,31.5966481 C29.8551429,30.9851296 28.9251429,30.5270185 28.1158571,30.2223148 C27.3037143,29.9155 26.7065714,29.6776481 26.3265714,29.5017222 C26.4208571,29.2406481 26.5165714,28.9577593 26.613,28.6509444 C26.7065714,28.3462407 26.8272857,27.9965 26.9708571,27.6038333 C27.1137143,27.210463 27.2322857,26.8628333 27.3287143,26.5560185 C27.4222857,26.2513148 27.4715714,26.0120556 27.4715714,25.8361296 C27.5658571,25.3125741 27.4937143,24.8537593 27.2565714,24.4610926 C27.0172857,24.0684259 26.5408571,23.8720926 25.8258571,23.8720926 C25.1101429,23.8720926 24.4658571,23.9600556 23.8937143,24.1338704 C23.3208571,24.3097963 22.8915714,24.4406852 22.6051429,24.5272407 C22.7958571,24.2647593 23.0572857,23.9600556 23.3922857,23.6103148 C23.7258571,23.2626852 24.0837143,22.8475 24.4658571,22.3668704 C24.8458571,21.8883519 25.1815714,21.472463 25.468,21.1227222 C25.7537143,20.7743889 25.9687143,20.5133148 26.1115714,20.3373889 C26.2551429,20.1635741 26.3737143,19.9010926 26.4694286,19.5513519 C26.5637143,19.2895741 26.5165714,18.9848704 26.3265714,18.6351296 C26.1344286,18.2875 25.8722857,18.0686481 25.5394286,17.9806852 C25.2037143,17.8941296 24.8951429,17.8941296 24.6087143,17.9806852 L24.6087143,17.7182037 C24.7994286,17.3705741 25.0137143,16.9553889 25.253,16.4747593 C25.4901429,15.995537 25.6822857,15.4276481 25.8258571,14.7725 C25.9687143,14.1180556 26.0872857,13.5515741 26.1837143,13.0702407 C26.2772857,12.5917222 26.3265714,12.219463 26.3265714,11.9576852 C26.3265714,11.6959074 26.4208571,11.3257593 26.613,10.8451296 C26.803,10.3659074 26.9458571,9.84235185 27.0422857,9.27375926 C27.1358571,8.70727778 27.0644286,8.24916667 26.8272857,7.89942593 C26.588,7.55109259 26.2301429,7.33224074 25.7537143,7.24427778 C25.9444286,7.15842593 26.1837143,7.11338889 26.4694286,7.11338889 C26.7558571,7.11338889 27.1137143,7.07046296 27.543,6.9825 C27.9722857,6.89664815 28.353,6.74324074 28.688,6.52438889 C29.0208571,6.30694444 29.2822857,6.11131481 29.4751429,5.93538889 C29.4751429,5.67361111 29.3315714,5.32527778 29.0458571,4.88757407 C28.7594286,4.45198148 28.3051429,4.05931481 27.6865714,3.70957407 C27.0644286,3.36124074 26.5165714,3.20783333 26.0401429,3.25146296 C25.5615714,3.2965 25.1815714,3.40416667 24.8951429,3.57798148 C24.6087143,3.84046296 24.2737143,3.97135185 23.8937143,3.97135185 C23.4151429,3.97135185 22.8915714,3.79753704 22.3194286,3.44709259 C21.7472857,3.09946296 21.268,2.83768519 20.888,2.66175926 C20.4094286,2.39998148 20.0294286,2.26909259 19.743,2.26909259 C19.4572857,2.61883333 19.0994286,3.07694444 18.6694286,3.64412963 C18.2401429,4.21201852 17.7394286,4.93261111 17.1672857,5.8045 C16.8937143,6.22109259 16.6551429,6.60672222 16.4472857,6.9642037 C16.2987143,6.63557407 16.1244286,6.29638889 15.898,5.92975926 C15.5694286,5.40831481 15.1215714,4.77568519 14.5522857,4.02694444 C13.9787143,3.28242593 13.4087143,2.61038889 12.8387143,2.01224074 C12.2658571,1.41761111 11.738,0.970055556 11.2487143,0.66887037 C10.5951429,1.11712963 9.81942857,1.67657407 8.92442857,2.34790741 C8.02657143,3.01994444 6.96728571,3.72927778 5.74371429,4.4745 C4.52014286,5.22324074 3.49942857,5.81787037 2.68514286,6.26472222 C1.86728571,6.71298148 1.133,7.08735185 0.483,7.38431481 C0.972285714,7.6847963 1.50014286,7.98246296 2.07371429,8.28012963 C2.643,8.58061111 3.29728571,8.80509259 4.03085714,8.95146296 C4.76514286,9.10205556 5.41442857,9.17524074 5.98871429,9.17524074 C6.558,9.17524074 7.62871429,9.14005556 8.03871429,9.06335185 C8.42657143,8.99298148 8.468,8.99227778 9.31014286,9.05631481 C9.25728571,9.18861111 9.20442857,9.32512963 9.15228571,9.47009259 C9.05657143,9.73187037 8.98442857,9.95072222 8.938,10.1252407 C8.88871429,10.3011667 8.86657143,10.4749815 8.86657143,10.6487963 C8.48371429,10.9098704 7.95871429,11.2377963 7.29228571,11.630463 C6.62371429,12.0231296 5.86085714,12.4383148 5.00228571,12.8739074 C4.14371429,13.3123148 3.403,13.682463 2.78371429,13.9871667 C2.16228571,14.2939815 1.61442857,14.5761667 1.138,14.8379444 L0.851571429,15.1004259 C0.945857143,15.3622037 1.113,15.7119444 1.353,16.147537 C1.58942857,16.5852407 2.01942857,17.0208333 2.64085714,17.4571296 C3.26014286,17.8941296 3.808,18.1988333 4.28657143,18.3733519 C4.763,18.5492778 5.14514286,18.6801667 5.43157143,18.7660185 C5.33585714,18.8539815 5.23942857,18.9623519 5.14514286,19.0932407 C5.04942857,19.2241296 4.93085714,19.4000556 4.78728571,19.6167963 C4.64442857,19.8363519 4.50157143,20.0326852 4.358,20.2057963 C4.21514286,20.3817222 4.09442857,20.5133148 4.00014286,20.598463 C3.808,20.8609444 3.52157143,21.1677593 3.14157143,21.5153889 C2.75942857,21.9530926 2.33014286,22.4316111 1.85371429,22.9558704 C1.37514286,23.4794259 1.01728571,23.9600556 0.780142857,24.3956481 C0.540857143,24.8340556 0.373,25.2267222 0.279428571,25.5743519 C0.279428571,25.6623148 0.325857143,25.7706852 0.422285714,25.9015741 C0.516571429,26.032463 0.659428571,26.1858704 0.851571429,26.3596852 C1.04157143,26.5356111 1.20942857,26.6221667 1.353,26.6221667 L1.71014286,26.6221667 C2.09085714,26.3596852 2.59157143,25.989537 3.213,25.5089074 C3.833,25.0296852 4.548,24.4610926 5.36014286,23.8066481 C6.16942857,23.1522037 6.86228571,22.5632037 7.43514286,22.0389444 C8.008,21.5153889 8.48371429,21.1227222 8.86657143,20.8609444 C8.29371429,21.3845 7.72157143,22.0389444 7.14871429,22.8249815 C6.57657143,23.6103148 6.21871429,24.5272407 6.07514286,25.5743519 C5.93228571,26.6221667 5.883,27.5383889 5.93228571,28.3237222 C5.97942857,29.1090556 6.00371429,29.7642037 6.00371429,30.2877593 L6.00371429,30.8113148 L6.00371429,31.2701296 L6.00371429,31.5966481 C6.098,31.9449815 6.33728571,32.2947222 6.71942857,32.644463 C7.00585714,32.9920926 7.48228571,33.1680185 8.15085714,33.1680185 C8.81728571,33.0800556 9.43871429,32.8182778 10.0108571,32.3826852 C10.4872857,32.0329444 10.8701429,31.6825 11.1558571,31.3348704 L12.8737143,34.7393889 L13.7322857,34.4776111 L13.7322857,34.3467222 C13.8265714,34.2587593 13.8751429,34.1707963 13.8751429,34.0849444 C13.9694286,33.9090185 14.0187143,33.7781296 14.0187143,33.6915741 L14.0187143,33.4297963 C14.0187143,32.9062407 13.9222857,32.2947222 13.7322857,31.5966481 C13.6365714,30.8113148 13.5644286,29.9155 13.518,28.9127222 C13.468,27.9106481 13.5644286,27.0148333 13.8037143,26.2287963 C14.0408571,25.443463 14.3044286,24.7890185 14.5908571,24.2647593 L13.4458571,25.3125741 L13.4458571,24.9199074 C13.4458571,24.8340556 13.468,24.6799444 13.518,24.4610926 C13.5644286,24.2443519 13.6115714,24.0480185 13.6608571,23.8720926 C13.708,23.6982778 13.7322857,23.5673889 13.7322857,23.4794259 C13.9222857,23.3056111 14.0651429,23.0438333 14.1615714,22.6940926 C14.2551429,22.3457593 14.1615714,21.9530926 13.8751429,21.5153889 C13.5887143,21.1677593 13.2315714,20.9489074 12.8022857,20.8609444 C12.373,20.7743889 12.0151429,20.7743889 11.7287143,20.8609444 C11.823,20.7743889 11.943,20.7096481 12.0865714,20.6646111 C12.2294286,20.6216852 12.373,20.555537 12.5158571,20.4682778 C12.6587143,20.3817222 12.7772857,20.2937593 12.8737143,20.2057963 C12.9672857,20.1199444 13.0637143,20.0749074 13.1601429,20.0749074 C13.3501429,19.9010926 13.5644286,19.7483889 13.8037143,19.6167963 C14.0408571,19.4859074 14.3044286,19.3346111 14.5908571,19.1586852 C14.8772857,18.9848704 15.1137143,18.8539815 15.3065714,18.7660185 C15.4965714,18.6801667 15.6394286,18.5922037 15.7358571,18.5042407 C15.9258571,18.1566111 15.9972857,17.7639444 15.9501429,17.325537 C15.9008571,16.8899444 15.593,16.5402037 15.0208571,16.2784259 C14.448,16.0166481 13.9222857,15.9307963 13.4458571,16.0166481 C12.9672857,16.1046111 12.5872857,16.2355 12.3008571,16.4093148 C12.3008571,16.2355 12.3237143,16.0616852 12.373,15.8857593 C12.4194286,15.7119444 12.4665714,15.5381296 12.5158571,15.3622037 C12.563,15.1883889 12.6344286,15.0138704 12.7308571,14.8379444 C12.8244286,14.7520926 12.8737143,14.6416111 12.8737143,14.5107222 C12.8737143,14.3798333 12.9208571,14.1835 13.0165714,13.9217222 C13.1108571,13.6599444 13.303,13.3552407 13.5887143,13.0047963 C13.8751429,12.6571667 14.0901429,12.3503519 14.2337143,12.0885741 C14.3758571,11.8267963 14.3987143,11.587537 14.3044286,11.3686852 C14.2087143,11.1519444 14.0187143,10.8247222 13.7322857,10.3863148 C13.4537143,9.96268519 13.0137143,9.55805556 12.4187143,9.17524074 C12.4372857,9.17524074 12.4544286,9.17524074 12.4722857,9.17524074 C13.6115714,9.17524074 14.5101429,8.99016667 15.1637143,8.6157963 C15.4008571,8.47998148 15.6094286,8.33783333 15.8037143,8.19146296 C15.5515714,8.73261111 15.3358571,9.2055 15.163,9.60098148 C15.163,9.77690741 15.2108571,9.99364815 15.3065714,10.2554259 C15.4001429,10.6051667 15.568,10.9330926 15.8072857,11.2377963 C16.0444286,11.5446111 16.3308571,11.7409444 16.6658571,11.8267963 C16.9994286,11.9147593 17.2608571,11.9576852 17.453,11.9576852 C17.5472857,11.8718333 17.643,11.7409444 17.7394286,11.5650185 C17.8337143,11.3912037 17.9765714,11.1948704 18.1687143,10.9760185 C18.3587143,10.7592778 18.5494286,10.5833519 18.7415714,10.452463 C18.9315714,10.3215741 19.0744286,10.2125 19.1708571,10.1252407 C19.0744286,10.5622407 18.9315714,11.0857963 18.7415714,11.6959074 C18.5494286,12.3953889 18.4058571,13.1807222 18.3122857,14.0526111 C18.2158571,14.9259074 18.1194286,15.6690185 18.0258571,16.2784259 L18.0258571,17.9806852 C18.2158571,18.242463 18.2158571,18.6147222 18.0258571,19.0932407 C17.8337143,19.5738704 17.4287143,20.1199444 16.8087143,20.7300556 C16.1872857,21.3415741 15.7358571,21.8651296 15.4494286,22.3007222 C15.0672857,22.7391296 14.8772857,23.1317963 14.8772857,23.4794259 C14.9708571,23.5673889 15.0672857,23.7637222 15.163,24.0684259 C15.2572857,24.3752407 15.4001429,24.6799444 15.593,24.9846481 C15.783,25.2921667 15.9972857,25.4885 16.2365714,25.5743519 C16.4737143,25.6623148 16.6887143,25.6623148 16.8808571,25.5743519 C17.0708571,25.4885 17.2608571,25.3576111 17.453,25.1816852 C17.643,25.0078704 17.8822857,24.7890185 18.1687143,24.5272407 C18.4551429,24.2647593 18.7165714,24.0480185 18.9558571,23.8720926 C19.193,23.6982778 19.3608571,23.5673889 19.4572857,23.4794259 C19.4572857,23.6553519 19.4072857,23.8291667 19.3137143,24.0029815 C19.218,24.1789074 19.1215714,24.3097963 19.0272857,24.3956481 C19.0272857,24.5715741 18.9787143,24.7031667 18.8844286,24.7890185 C18.6922857,25.0507963 18.4058571,25.400537 18.0258571,25.8361296 C17.5472857,26.2738333 16.9994286,26.7748704 16.3801429,27.3420556 C15.758,27.9106481 15.2572857,28.4116852 14.8772857,28.8472778 C14.4951429,29.2849815 14.2087143,29.6776481 14.0187143,30.0259815 L14.0187143,30.1568704 L14.0187143,30.2877593 L14.0187143,30.4186481 L14.0187143,30.549537 C14.0187143,30.8113148 14.0901429,31.0730926 14.2337143,31.3348704 C14.3758571,31.5966481 14.6622857,31.727537 15.0915714,31.727537 C15.5215714,31.727537 15.9008571,31.6177593 16.2365714,31.4010185 C16.5701429,31.181463 16.7844286,30.9851296 16.8808571,30.8113148 C17.2608571,31.2469074 17.7394286,31.727537 18.3122857,32.2517963 C18.8844286,32.7753519 19.5758571,33.1680185 20.3872857,33.4297963 C21.1965714,33.6915741 21.9372857,33.6915741 22.6051429,33.4297963 C23.178,33.0800556 23.6544286,32.7303148 24.0365714,32.3826852 C24.2265714,32.1209074 24.4415714,31.9020556 24.6808571,31.727537 C24.918,31.5516111 25.2037143,31.4657593 25.5394286,31.4657593 C25.8722857,31.4657593 26.1837143,31.5516111 26.4694286,31.727537 C26.7558571,31.8140926 26.993,31.9449815 27.1851429,32.1209074 C27.5658571,32.2067593 33.2801429,35.0863148 33.8522857,35.4360556 C34.4251429,35.7843889 35.0915714,36.1770556 35.8558571,36.6147593 C36.618,37.0503519 37.2872857,37.4000926 37.8594286,37.6625741 C38.4315714,37.8363889 38.908,37.9243519 39.2908571,37.9243519 C39.1944286,37.4000926 38.908,36.8110926 38.4315714,36.1566481 C38.278,35.9462407 36.9172857,34.4909815 35.9708571,33.9118333 Z" id="Fill-1" fill="#FFFFFF" mask="url(#mask-2)"></path>
                    </g>
                    <path d="M114.046202,26.1260825 L114.036323,26.0758324 C113.977753,25.8615714 113.978459,25.6110186 114.039851,25.3297574 C114.096305,25.0694338 114.31506,24.7770059 114.690474,24.4601509 C115.08,24.132827 115.469526,23.9227535 115.847057,23.8362116 C115.876695,23.8292325 115.905627,23.8229512 115.933853,23.8166699 C115.687577,24.0742019 115.391198,24.3791923 115.044717,24.7295474 C114.673538,25.1036318 114.406091,25.4379348 114.252256,25.7212897 C114.171811,25.8664568 114.104067,26.0004572 114.046202,26.1260825 Z M122.29753,11.4621151 C122.471123,11.5151569 122.624253,11.5493549 122.761151,11.5640112 L123.053296,11.9660123 L123.053296,12.9598484 L122.755506,12.9598484 C122.498644,12.9598484 122.210028,12.9759005 121.873426,13.0100985 C121.524828,13.0470882 121.212925,13.1189738 120.946184,13.2243595 C120.860799,13.2571617 120.77753,13.2927556 120.694262,13.3311411 C120.708375,13.2355262 120.726722,13.125953 120.749304,12.9996298 C120.823398,12.5892536 120.860093,12.1118773 120.860093,11.5814592 C120.860093,11.2283124 120.800111,10.9219261 120.679443,10.6650921 C120.909489,10.8109571 121.169174,10.9568221 121.452145,11.1005933 C121.791569,11.274375 122.068189,11.3930212 122.29753,11.4621151 Z M122.475357,16.9777657 C122.110529,17.2513498 121.74429,17.4502566 121.385812,17.5702986 C121.112721,17.6617259 120.884085,17.7371011 120.699201,17.7957263 C120.696379,17.7852575 120.692851,17.7747887 120.690028,17.7629241 C120.666035,17.6791739 120.652628,17.583559 120.648394,17.4718921 L121.193872,16.9721824 C121.34065,16.8374841 121.506481,16.6678898 121.692776,16.4640976 C121.855785,16.2826388 122.05831,16.0962945 122.295413,15.9106482 C122.542396,15.7159289 122.773148,15.5379597 122.984141,15.3760425 C123.007428,15.3578967 123.030715,15.3404487 123.053296,15.3236987 L123.053296,15.5903036 L123.070232,15.6852205 C123.12104,15.8275959 123.117512,16.0202214 123.061058,16.2575137 C123.006722,16.4836393 122.809136,16.7258171 122.475357,16.9777657 Z M121.342767,15.3474279 L120.647688,16.838182 L120.647688,14.9468226 C120.758477,14.9747394 120.869266,15.0145207 120.983584,15.0654688 C121.099313,15.1192085 121.200223,15.1855108 121.28208,15.2601881 C121.318069,15.2929902 121.335005,15.3223028 121.342767,15.3474279 Z M117.942878,17.1061827 C117.942878,17.2276206 117.915357,17.3546417 117.860316,17.4816629 C117.781987,17.661028 117.725534,17.8180597 117.687428,17.9590392 C117.657084,18.0672166 117.623213,18.106998 117.609099,18.1202584 C117.479963,18.2389046 117.280966,18.3903529 117.001523,18.5836764 C116.724197,18.7742081 116.390418,18.9849796 116.007948,19.2083135 C115.655116,19.4148974 115.353092,19.5342415 115.108932,19.5614603 C114.999554,19.5747208 114.892999,19.5844916 114.792089,19.5928666 L115.204903,18.2647276 C115.413073,17.5954236 115.746852,16.8221299 116.19636,15.9657838 C116.650808,15.097573 117.07844,14.3298626 117.466555,13.6814962 C117.635209,13.400235 117.794689,13.1357239 117.942878,12.8900565 L117.942878,17.1061827 Z M122.06325,28.6036935 C121.845905,28.6036935 121.541764,28.6204435 121.133185,28.6539436 C120.744364,28.6874437 120.319554,28.719548 119.859461,28.7516522 C119.426184,28.7823607 119.038774,28.7677044 118.707818,28.7062875 C118.463658,28.6623187 118.256899,28.6009018 118.091773,28.5241308 L118.091773,27.2260022 C118.091773,26.9384598 118.139053,26.678834 118.230789,26.4527084 C118.326054,26.2196036 118.419907,26.0458219 118.506704,25.9383424 C118.61961,25.8015504 118.732516,25.6466125 118.844717,25.4742266 C118.98091,25.2662468 119.050065,25.0170899 119.050065,24.7323391 C119.050065,24.4699217 119.007019,24.236119 118.920223,24.0323268 C118.89623,23.9778891 118.871532,23.9290348 118.847539,23.8829722 C118.85883,23.8773888 118.870826,23.8718055 118.883528,23.8662221 L118.971031,23.8264408 L119.016193,23.7419926 C119.057122,23.6666174 119.117103,23.6121798 119.2039,23.5723984 L119.291402,23.5326171 L119.336565,23.4481689 C119.402897,23.3239394 119.457233,23.2611267 119.491105,23.2297204 L119.582841,23.1452722 L119.582841,22.3510409 L119.536267,22.2805511 C119.287874,21.9001855 118.913166,21.6307889 118.421318,21.4786427 C117.932293,21.3285902 117.366351,21.381632 116.73831,21.6335806 C116.701616,21.6482369 116.665627,21.6635911 116.629638,21.6782474 C116.643751,21.6705703 116.657159,21.6621952 116.671272,21.6545181 C116.943658,21.4981844 117.149006,21.3872153 117.30637,21.3139339 C117.648617,21.1247979 118.067075,20.9328703 118.517289,20.7542032 C118.99714,20.6285778 119.582136,20.498067 120.255339,20.3675563 C120.932776,20.2363476 121.556583,20.1065347 122.136639,19.9718364 C122.478886,19.8825029 122.782321,19.7945651 123.053296,19.7066274 L123.053296,21.269965 L123.298162,29.6987278 L122.114763,29.6149775 C122.234726,29.3832686 122.311643,29.156445 122.347632,28.9317152 L122.39844,28.6036935 L122.06325,28.6036935 Z M127.764308,9.70336028 L127.763603,9.70196445 C127.614002,9.3620781 127.444643,9.05150433 127.259053,8.77582648 C127.066407,8.49526321 126.896342,8.28798139 126.738273,8.14141849 L126.68182,8.08837668 L126.605608,8.07162663 C126.292999,8.00113685 125.871718,7.98299097 125.350938,8.01579314 C125.045385,8.03742862 124.616342,8.1867832 124.160483,8.34660655 C123.795655,8.47432566 123.41883,8.60623227 123.12598,8.66276367 C122.432312,8.79746196 121.82403,8.9677541 121.318774,9.16666089 C120.823398,9.36138018 120.399294,9.52329729 120.047168,9.65241223 L119.680929,9.78711051 C119.508747,9.71871449 119.323863,9.66916227 119.126982,9.63845386 L118.988672,9.6175163 L118.887057,9.71103739 C118.515172,10.0523196 118.119294,10.5143417 117.702247,11.0936141 C117.192758,11.6289177 116.682563,12.2472735 116.187892,12.9312337 C115.687577,13.6186835 115.26065,14.2244769 114.904995,14.7472179 C114.794912,14.9084371 114.689062,15.0605833 114.58533,15.2029587 C114.598032,15.0110311 114.629786,14.8009576 114.678477,14.574832 L114.685534,13.6354336 L114.675655,13.5607563 C114.60156,13.2920577 114.525348,13.065932 114.448431,12.885869 C114.401151,12.7783896 114.389155,12.6757955 114.413148,12.5697119 C114.42585,12.5117847 114.47948,12.3833677 114.65519,12.2144714 L115.293816,11.8236369 C115.49493,11.7008033 115.661467,11.6079801 115.796249,11.5458654 L115.962786,11.4697922 L115.962786,10.8479468 C115.962786,10.7188318 115.925385,10.579946 115.849174,10.4236123 C115.832943,10.3335808 115.787075,10.2240075 115.679814,10.1249031 C115.372851,9.77385006 114.967799,9.4709534 114.472423,9.22458813 C113.971402,8.97822287 113.33701,8.85259753 112.588301,8.85259753 C111.863584,8.85259753 111.202377,8.90354559 110.622321,9.00404586 C110.052851,9.10175446 109.591346,9.18480678 109.235692,9.24901529 L109,9.2908904 L109,9.52818272 C109,9.782923 109.119963,10.0886113 109.342953,10.4222164 C109.508078,10.8046758 109.85597,11.1654997 110.41415,11.5298132 C110.871421,11.8103765 111.337864,11.9883457 111.790195,12.0567418 C112.020947,12.0993148 112.227707,12.1286274 112.406945,12.1446795 L112.406945,12.6569517 C112.406945,12.7469832 112.379424,12.8572544 112.324383,12.9842756 C112.280631,13.0847758 112.159257,13.1887657 111.973668,13.2864743 C111.737976,13.4107038 111.534745,13.5042249 111.369619,13.5642459 C111.18403,13.6326419 111.018199,13.7010379 110.870715,13.7673402 L110.703473,13.8434133 L110.703473,14.5392382 L110.793092,14.6229884 C110.807911,14.6376447 110.862953,14.6969678 110.939164,14.8700516 C111.026667,15.0738438 111.191792,15.2553026 111.430306,15.4102406 C111.59896,15.629387 111.793723,15.7794395 112.007539,15.8562105 C112.116917,15.8973877 112.186072,15.9308878 112.228412,15.9560129 C112.244643,16.0593048 112.241114,16.2400658 112.152906,16.5366812 C112.058347,16.854932 111.826184,17.2318081 111.463473,17.6554446 C111.06195,18.1251439 110.746518,18.569718 110.52494,18.9759066 C110.297716,19.3939598 110.150232,19.7338462 110.074726,20.0151074 L110.030975,20.1777224 L110.15376,20.2942748 C110.220093,20.3556917 110.320297,20.464567 110.453668,20.6153174 C110.618793,20.8058491 110.8439,20.9768392 111.121226,21.1206104 C111.383733,21.2601941 111.605311,21.3613923 111.794429,21.4297884 C112.035766,21.5198199 112.237586,21.5379657 112.405534,21.484226 L112.841634,21.3509236 C112.998997,21.3572048 113.159183,21.3969862 113.318663,21.4709656 C113.47532,21.5421532 113.588932,21.6461431 113.66585,21.7871227 C113.750529,21.9427585 113.824624,22.1025819 113.887428,22.2631031 C113.865552,22.3126554 113.79922,22.4257182 113.603045,22.6309062 C113.352535,22.8933236 113.049805,23.2206474 112.711792,23.5954297 C112.258756,24.0120871 111.960966,24.3554631 111.791606,24.6688285 C111.632832,25.033142 111.555209,25.3255699 111.555209,25.5635601 L111.555209,25.6856959 L111.644828,25.7694461 C111.659647,25.7834045 111.714689,25.8434255 111.790901,26.0172072 C111.86429,26.1874994 111.958143,26.3745415 112.068932,26.5783338 L112.333556,27.064783 C112.382953,27.1583041 112.406945,27.2427523 112.406945,27.3237108 L112.406945,27.7689829 L113.667261,27.1904084 L113.817567,27.0899081 L113.830975,26.9566056 C113.878254,26.902168 113.919183,26.8295845 113.960111,26.7276883 L114.162637,27.098981 C113.886017,27.2895128 113.588932,27.4995863 113.269972,27.7298994 C112.776713,28.0865358 112.351198,28.3789637 112.005422,28.6009018 C111.646945,28.8319129 111.324457,29.044778 111.039369,29.2415911 L110.830492,29.3860602 L111.270121,30.1963437 L111.342098,30.2570626 L111.342098,30.5418134 L111.630009,30.5418134 C111.945441,30.5418134 112.34273,30.4559694 112.845162,30.2800939 C113.330659,30.107708 113.893779,29.7810822 114.518997,29.3099871 C115.125162,28.8514546 115.651588,28.4173492 116.08416,28.0209315 C116.295859,27.8262122 116.490622,27.6559201 116.665627,27.510753 L116.665627,29.2792787 C116.665627,29.7985301 116.86533,30.3177815 117.257679,30.8216788 C117.67402,31.3562844 118.328877,31.5886913 119.233538,31.5154098 C120.137493,31.3758261 120.868561,31.0554815 121.421096,30.5494905 C121.477549,30.4894695 121.531179,30.4308444 121.582693,30.3722192 C121.585515,30.3785005 121.587632,30.3847817 121.589749,30.3903651 C121.656787,30.5145946 121.741467,30.7009388 121.843083,30.9507937 C121.889656,31.0631586 121.947521,31.4791181 121.986332,31.7547959 C122.035729,32.1065469 122.065367,32.3103391 122.104884,32.4178186 C122.164865,32.5846211 122.195209,32.7172256 122.195209,32.8121426 L122.195209,32.902872 L122.248839,32.9768514 C122.401263,33.1883207 122.622136,33.425613 122.925571,33.7047804 L122.981318,33.7445618 C123.320743,33.9323019 123.941727,34 124.458273,34 C124.650214,34 124.828041,33.9902291 124.971291,33.974177 C125.609916,33.9001976 126.101058,33.6705824 126.434132,33.2902168 C126.748858,32.9259033 126.94221,32.6013712 127.034652,32.2468285 C127.110158,31.2599716 127.120743,29.3253413 127.088282,28.0984004 C127.052293,26.7939906 126.997957,25.2599656 126.928802,23.499117 C126.856825,21.7375705 126.785552,20.189587 126.715692,18.8509792 C126.645831,17.557736 126.610548,16.4731706 126.609136,15.6265953 C126.680409,15.3502196 126.715692,15.0396458 126.711458,14.6599781 C126.643714,14.2907791 126.609136,13.880403 126.606314,13.3960475 C126.547744,13.0254528 126.599257,12.7379103 126.758737,12.5417952 L126.79896,12.4754929 C126.817307,12.4343157 126.89987,12.3177633 127.272461,12.1390961 C127.712089,11.9283247 127.997883,11.5032923 128,11.0440619 C128,10.8179363 127.930139,10.0872155 127.764308,9.70336028 Z" id="Fill-4" fill="#FFFFFF"></path>
                    <path d="M61.8381574,7.03069546 C60.7041662,7.22426399 60.1653745,7.86582637 60.015602,9.17461362 C59.8424885,10.6850348 61.1469998,12.1367988 62.0923166,13.0063907 C62.9319499,13.7784652 63.8733766,14.7265111 64.9587404,15 C65.039786,14.4882165 64.9872684,13.962502 64.9224319,13.4477857 C64.6741079,11.4578425 64.5522152,6.56803733 61.8381574,7.03069546" id="Fill-6" fill="#FFFFFF"></path>
                    <path d="M69.500875,14.2809679 C70.1246927,13.9793656 70.7783423,13.6574558 71.3040463,13.1610529 C72.4774335,12.0501634 72.1777889,9.63884882 70.3235719,10.0457488 C70.3235719,10.0457488 68.6609418,10.166841 68,15 C68.0265172,14.8051995 69.3159173,14.3704709 69.500875,14.2809679" id="Fill-8" fill="#FFFFFF"></path>
                    <path d="M58.178717,16.8884306 C57.8353204,17.626938 57.981956,18.1561211 58.6605196,18.6694149 C58.6605196,18.6694149 59.9203886,19.9025635 64,17.605522 L60.2398447,16.1153811 C59.4498081,15.80174 58.5213654,16.1499231 58.178717,16.8884306" id="Fill-10" fill="#FFFFFF"></path>
                    <path d="M2.92635581,35 L2.74564739,35 L2.5110066,35 C2.22173304,35 1.97798679,34.9151836 1.77906744,34.7448441 C1.58084851,34.5737978 1.44496698,34.3073331 1.37282369,33.9419159 C1.34900941,33.8323615 1.33079848,33.6288022 1.31889133,33.3312382 C1.30628377,33.0329673 1.30068041,32.6343304 1.30068041,32.1360343 C1.30068041,31.9296479 1.28246948,31.6073457 1.24674805,31.1691279 C1.2103262,30.73091 1.19211527,30.4086079 1.19211527,30.2022214 C1.19211527,30.1294207 1.20682409,30.0014893 1.23694217,29.8191342 C1.26706024,29.6374858 1.28877326,29.3879843 1.30068041,29.0713366 C1.3244947,28.779427 1.34900941,28.4267323 1.37282369,28.0132526 C1.34900941,27.6238041 1.30628377,27.2407169 1.24674805,26.8639909 C1.33079848,26.2193866 1.42675605,25.5627666 1.53532119,24.894131 C1.54722834,24.7958854 1.53812287,24.6198915 1.50870522,24.3647356 C1.47788673,24.1095797 1.46317791,23.9392402 1.46317791,23.853717 C1.46317791,23.7689007 1.48419051,23.6437965 1.52621573,23.4798183 C1.56824094,23.31584 1.58925355,23.1850814 1.58925355,23.0875426 C1.58925355,22.9659725 1.56824094,22.8684337 1.52621573,22.795633 C1.48419051,22.7228323 1.42115269,22.6867853 1.33640184,22.6867853 C1.2761657,22.7108166 1.20682409,22.7383819 1.12907745,22.7680677 C1.05063038,22.799167 0.969381629,22.8323867 0.884630778,22.8684337 C0.812487492,22.8811561 0.7228337,22.9051874 0.614268561,22.9419412 C0.505703422,22.9779881 0.372623574,23.0211031 0.216429858,23.0698725 L0.0539323594,22.9596113 L0,22.7779629 C0.108565139,22.5835921 0.219231539,22.3955825 0.33410046,22.2132273 C0.448268961,22.0308721 0.553331999,21.848517 0.649989994,21.6661618 C0.758555133,21.5085447 0.890934561,21.3685978 1.0478287,21.2470276 C1.20402241,21.1261643 1.36651991,21.0038874 1.53532119,20.8830241 C1.66770062,20.8095166 1.77906744,20.6158526 1.86942165,20.2999116 C1.95977587,19.9839707 2.02911747,19.5224284 2.07744647,18.9152846 C2.12507505,18.2233245 2.17970782,17.6578821 2.23994397,17.2210779 C2.30018011,16.7842736 2.35971583,16.4860028 2.42065239,16.3283857 C2.46828097,16.1820775 2.52921753,15.9940679 2.60136082,15.7636501 C2.60136082,15.6901426 2.58314989,15.5749337 2.54672804,15.4173167 C2.5110066,15.2596996 2.49279568,15.1501451 2.49279568,15.0893601 C2.57684611,14.5309857 2.66159696,13.9902815 2.74564739,13.4679541 C2.88993396,12.7145021 3.19111467,11.9617569 3.64918951,11.2090117 C4.10656394,10.4555598 4.7208325,9.66606084 5.49129478,8.84051496 C6.28627176,8.05101603 7.43636182,7.47991922 8.94156494,7.12793134 C9.11036622,7.16397829 9.26095657,7.20073205 9.393336,7.2374858 L9.98939364,7.01837688 C10.0496298,7.01837688 10.1252752,7.03675375 10.2156294,7.07280071 C10.3059836,7.10955446 10.4229538,7.16397829 10.5679408,7.2374858 C10.8446068,7.15266944 11.0848509,7.09117758 11.290074,7.05513063 C11.4945968,7.01837688 11.6570943,7 11.778267,7 C12.5249149,7 13.081749,7.10036602 13.4487693,7.30109807 C13.8157895,7.50183011 14,7.80858261 14,8.22135555 C14,8.45248012 13.9845908,8.71399722 13.9551731,9.00520005 C13.9243546,9.29710968 13.8732239,9.61305061 13.8010806,9.95302284 C13.7170302,10.4032563 13.6203722,10.7404014 13.5118071,10.9651647 C13.4039424,11.1899281 13.2834701,11.3143254 13.1510907,11.3383567 C12.8373024,11.1927553 12.5186112,11.0563423 12.1936162,10.928411 C11.8686212,10.8011864 11.5310186,10.6640666 11.1822093,10.5184652 L10.5315189,10.7736211 C10.3262958,10.7495898 10.1042626,10.7184905 9.86331799,10.6824435 C9.65809486,10.6824435 9.42625575,10.7036476 9.16780068,10.7467626 C8.90864519,10.7891708 8.64038423,10.8464218 8.36371823,10.9192225 C7.6051631,11.1015777 7.16529918,11.3539063 7.0448269,11.6755017 C6.92435461,11.9985107 6.7198319,12.4324877 6.43055834,12.9795532 C6.33460076,13.1011233 6.1805083,13.5930582 5.97038223,14.4560646 C5.75955573,15.3190711 5.47938763,16.546081 5.12987793,18.1385081 C5.11797078,18.2113088 5.07244347,18.3385334 4.99469682,18.5208886 C4.91624975,18.7032437 4.87772664,18.8552064 4.87772664,18.9767765 C4.87772664,19.147116 4.90714429,19.2771677 4.96808085,19.3683453 C5.02761657,19.4595229 5.10606364,19.5118263 5.20272163,19.523842 C5.38343006,19.4383188 5.62717631,19.344314 5.93396038,19.2411208 C6.24074445,19.1379276 6.61126676,19.0255459 7.0448269,18.9039758 C7.43005803,18.8552064 7.81879127,18.7915941 8.2103262,18.7124322 C8.60186112,18.6332702 9.00810486,18.533611 9.42975785,18.4113341 L9.88152892,18.4113341 L10.513308,18.4113341 C10.9230538,18.3385334 11.338403,18.2657327 11.760056,18.192932 C12.458375,18.192932 12.981589,18.293298 13.3310987,18.4933232 C13.6806084,18.6940553 13.8557134,18.9767765 13.8557134,19.3414868 C13.8557134,19.4142875 13.846608,19.5994699 13.828397,19.897034 C13.8101861,20.1953048 13.7828697,20.5932349 13.7471483,21.091531 C13.5902542,21.3707182 13.4277567,21.6562666 13.2589554,21.9481762 C13.1510907,21.9481762 12.8737242,21.902234 12.428257,21.8110564 C11.9827897,21.7198788 11.3503102,21.5834659 10.5315189,21.4011107 C10.2422453,21.4739114 9.92915749,21.5318692 9.59225535,21.5742774 C9.25465279,21.6166856 8.90584351,21.6378897 8.54442666,21.6378897 C8.31538923,21.6378897 7.98759256,21.6746434 7.55963578,21.7474441 C7.13237943,21.8209517 6.80388233,21.8633598 6.57554533,21.8753755 C6.41865119,21.9969456 6.25895537,22.0845892 6.09645787,22.1397198 C5.93396038,22.1941436 5.77426456,22.2217089 5.61807084,22.2217089 C5.53331999,22.2217089 5.3470082,22.2033321 5.05773464,22.1665783 C4.90154092,22.1665783 4.75095057,22.3093525 4.60596358,22.5949009 C4.46167701,22.8811561 4.33560136,23.3214944 4.22703622,23.9166225 L4.0463278,24.700467 L4.17310386,25.2659094 L3.82989794,27.4350877 C3.82989794,27.5199041 3.83830298,27.6202701 3.85651391,27.7361858 C3.87472483,27.8513947 3.8838303,27.9701376 3.8838303,28.0917077 C3.72693616,29.0635618 3.61556934,30.0142118 3.54972984,30.9443645 C3.48318991,31.8738104 3.45027016,32.8004291 3.45027016,33.7242206 C3.45027016,33.9185914 3.40754453,34.1249779 3.3234941,34.3440868 C3.23944367,34.562489 3.10706424,34.7808911 2.92635581,35" id="Fill-12" fill="#FFFFFF"></path>
                    <path d="M15,27.1100227 C15.0490885,27.07364 15.0889284,27.03166 15.1195198,26.9833829 C15.1501112,26.9358055 15.1650511,26.8756341 15.1650511,26.8035683 C15.3734993,26.6349484 15.6089818,26.4033584 15.8714984,26.1080987 C16.1347265,25.8135386 16.4313917,25.4679027 16.761494,25.0704915 C17.0304135,24.7101627 17.309293,24.3491342 17.5959982,23.9881056 C17.8834149,23.6270771 18.1928857,23.2660486 18.522988,22.9057198 C18.7919075,22.5446913 19.0579813,22.1689697 19.3212094,21.7771559 C19.5837261,21.3867413 19.8626056,21.0047228 20.1564251,20.6317999 C20.6451756,20.4037082 21.0243664,20.2413853 21.2939973,20.1441315 C21.5629169,20.0482771 21.7457537,20 21.8439306,20 C22.0274789,20 22.1683415,20.0573727 22.265807,20.1714186 C22.363984,20.2861641 22.4130725,20.4512856 22.4130725,20.6674829 C22.4130725,20.7402484 22.3945754,20.8423999 22.3575811,20.974637 C22.3212984,21.1068742 22.2779013,21.2510058 22.2295242,21.4077313 C22.144153,21.648417 22.045976,21.8947 21.9357048,22.14728 C21.8375278,22.56848 21.7215651,22.9896799 21.5871054,23.4108798 C21.4526456,23.8320798 21.3238773,24.2469827 21.2022232,24.6555886 C21.0791463,25.1733427 20.9845265,25.648417 20.9176523,26.0815113 C20.8500667,26.5146056 20.8166296,26.9113171 20.8166296,27.2723456 C20.8166296,27.9461256 20.8500667,28.4449886 20.9176523,28.7703341 C20.9845265,29.0949799 21.0791463,29.2391114 21.2022232,29.2034284 C21.3238773,29.1313626 21.4768341,29.0439041 21.6603824,28.9417527 C21.8439306,28.8396012 22.0580703,28.722057 22.3028012,28.5898198 C22.5233437,28.3610285 22.7709204,28.0783628 23.0462428,27.741123 C23.3208537,27.4045828 23.6545131,27.0078713 24.0457981,26.5502886 C24.2656292,26.2137485 24.4925745,25.8828057 24.7244998,25.5581599 C24.8105825,25.4623054 24.9108937,25.3475599 25.0275678,25.2153227 C25.1435305,25.0830855 25.250956,24.9508483 25.3484215,24.8186112 C25.5810582,24.2406857 25.8407292,23.8110897 26.1288573,23.5277243 C26.4155625,23.2457583 26.7371276,23.1037257 27.0921298,23.1037257 C27.4094264,23.1037257 27.663406,23.1429071 27.853357,23.2212699 C28.0425967,23.2996327 28.1742108,23.4171768 28.2474878,23.5732027 C28.284482,23.6571628 28.3150734,23.8012944 28.3392619,24.006297 C28.3641618,24.2106 28.3762561,24.4813713 28.3762561,24.8186112 C28.3762561,24.9508483 28.4032904,25.1425573 28.4587817,25.395837 C28.5135616,25.648417 28.5413072,25.8352283 28.5413072,25.9548714 C28.5413072,26.3998601 28.6209871,26.7343012 28.7796354,26.9567955 C28.9382837,27.1792898 29.1837261,27.290537 29.5138284,27.290537 C29.6112939,27.290537 29.727968,27.2723456 29.8624277,27.2359629 C29.9968875,27.2002799 30.1313473,27.1582998 30.265807,27.1100227 L31,28.7703341 C30.265807,29.2034284 29.6632281,29.5308728 29.1929747,29.7533672 C28.7220098,29.9765611 28.3698533,30.0871086 28.1372165,30.0871086 C27.5253891,30.0871086 27.0245442,29.9310827 26.6332592,29.6183313 C26.2412628,29.3055798 25.9538462,28.8423999 25.7710093,28.2287913 C25.7461094,28.0846598 25.6941752,27.9398286 25.6144953,27.795697 C25.5348155,27.6508658 25.4345042,27.5067343 25.3121387,27.3626028 C25.2018675,27.4829456 25.0766563,27.6270771 24.9357937,27.795697 C24.7949311,27.9643169 24.6455313,28.1322372 24.4861716,28.3008571 C24.1560694,28.6982683 23.8259671,29.0858842 23.4951534,29.4651041 C23.1650511,29.8436243 22.828546,30.2200455 22.4863495,30.5929683 C22.0580703,31.086234 21.6269453,31.4437642 21.1929747,31.6662585 C20.7582926,31.8894525 20.3513562,32 19.9728768,32 C19.4101378,32 18.9569586,31.8348784 18.6147621,31.5039356 C18.2725656,31.1729928 18.0520231,30.6825258 17.9538462,30.0332342 C17.8442863,29.4077313 17.7710093,28.9207626 17.7340151,28.5716285 C17.6977323,28.2224943 17.6913295,28.012594 17.715518,27.9398286 C17.6913295,27.5913941 17.657181,27.3269197 17.6144953,27.1457058 C17.5718097,26.9651915 17.5077812,26.8756341 17.42241,26.8756341 L17.3121387,26.9295085 L16.2663406,27.9944027 C16.2293464,28.0783628 16.1681636,28.1833129 16.0827924,28.3099528 C15.9967096,28.4365926 15.880747,28.5898198 15.734193,28.7703341 C15.6851045,28.5898198 15.5997332,28.3673255 15.4773677,28.1021515 C15.3550022,27.8383768 15.1956425,27.5067343 15,27.1100227" id="Fill-14" fill="#FFFFFF"></path>
                    <g id="Group-18" transform="translate(30.000000, 21.000000)">
                        <mask id="mask-4" fill="white">
                            <use xlink:href="#path-3"></use>
                        </mask>
                        <g id="Clip-17"></g>
                        <path d="M0.137275,5.72872903 C0.417775,5.43563226 0.846316667,5.0822129 1.425025,4.66705161 C2.00373333,4.25189032 2.43298333,3.91053548 2.71348333,3.64227742 C2.89694167,3.42227742 3.13423333,3.15685806 3.42819167,2.84601935 C3.72073333,2.53518065 4.06923333,2.16543871 4.472275,1.7382129 C4.71594167,1.51892258 4.95465,1.34789032 5.186275,1.22582581 C5.41860833,1.10376129 5.65094167,1.04272903 5.88256667,1.04272903 C6.17510833,1.04272903 6.4039,1.11582581 6.56823333,1.26272903 C6.73256667,1.40892258 6.81473333,1.6409871 6.81473333,1.9582129 C6.81473333,2.43369677 6.63198333,3.2029871 6.26648333,4.26466452 C5.90098333,5.32634194 5.71823333,6.13111613 5.71823333,6.68040645 C5.71823333,6.80247097 5.74585833,6.88834194 5.80110833,6.9366 C5.85565,6.98556774 5.9194,7.00969677 5.99235833,7.00969677 L6.08373333,6.99124516 C6.31535833,6.84505161 6.58594167,6.65911613 6.8969,6.43343871 C7.20715,6.20776129 7.557775,5.93027742 7.94735833,5.60027742 C8.26398333,5.30789032 8.6564,4.92324516 9.12531667,4.44705161 C9.59423333,3.97156774 10.1453167,3.42227742 10.7785667,2.8006 C11.0222333,2.60543871 11.2991917,2.35492258 11.61015,2.04976129 C11.9204,1.7446 12.2703167,1.37911613 12.6606083,0.951890323 C12.8185667,0.731890323 13.0409833,0.560858065 13.32715,0.438793548 C13.6133167,0.31743871 13.9639417,0.256406452 14.3776083,0.256406452 C14.6581083,0.256406452 14.867775,0.308212903 15.008025,0.411825806 C15.1475667,0.51543871 15.2184,0.670858065 15.2184,0.878083871 C15.2184,0.963954839 15.2091917,1.04627742 15.190775,1.12576129 C15.1723583,1.20453548 15.1574833,1.28047097 15.1447333,1.35427742 C15.0597333,1.72047097 14.931525,2.16827742 14.761525,2.69911613 C14.5908167,3.22995484 14.3839833,3.85589032 14.1403167,4.57550323 C13.9334833,5.02685806 13.7167333,5.56692258 13.4921917,6.19569677 C13.2662333,6.82376129 13.0261083,7.51640645 12.7696917,8.27292258 L12.8979,8.43756774 C13.1529,8.31550323 13.5318583,8.02595484 14.0361917,7.5682129 C14.5398167,7.11047097 15.1744833,6.49730968 15.9401917,5.72872903 L16.6704833,7.41279355 C16.5727333,7.51001935 16.4544417,7.62924516 16.3141917,7.76905161 C16.17465,7.90956774 15.9890667,8.05930968 15.7574417,8.21756774 C14.4548167,9.14511613 13.3384833,10.0634387 12.407025,10.9725355 C11.476275,11.8809226 10.736775,12.7815032 10.1892333,13.6721484 C9.37394167,15.0141484 8.69535833,16.1070516 8.15348333,16.948729 C7.61160833,17.7904065 7.21919167,18.3822774 6.97623333,18.7243419 C6.13615,19.8342774 5.339275,20.6575032 4.58419167,21.194729 C3.82981667,21.7319548 3.09315,22.0002129 2.37560833,22.0002129 C2.10715,22.0002129 1.91235833,21.9455677 1.790525,21.8355677 C1.66869167,21.7255677 1.607775,21.5545355 1.607775,21.3231806 C1.607775,21.2011161 1.63823333,21.0485355 1.69985833,20.8654387 C1.76006667,20.6823419 1.86985833,20.4871806 2.02781667,20.2792452 C2.25944167,19.9506645 2.47194167,19.6086 2.666025,19.2551806 L3.21073333,18.7789871 C3.2589,18.6200194 3.28298333,18.5100194 3.28298333,18.4489871 C3.33185833,18.3879548 3.401275,18.3148581 3.49194167,18.2296968 C3.58260833,18.1445355 3.68885833,18.0466 3.80998333,17.9373097 C3.89498333,17.7173097 4.12235833,17.3539548 4.49423333,16.8479548 C4.86610833,16.3412452 5.38673333,15.6918903 6.05610833,14.898471 C6.55619167,14.3129871 7.01235833,13.7913742 7.42673333,13.3336323 C7.8404,12.8758903 8.19385833,12.4884065 8.4864,12.1711806 C8.53456667,12.0732452 8.58698333,11.9575677 8.641525,11.8234387 C8.69606667,11.6893097 8.74210833,11.5551806 8.77823333,11.4210516 C8.93619167,11.1038258 9.10973333,10.7191806 9.29956667,10.2678258 C9.48798333,9.81647097 9.71606667,9.28563226 9.98381667,8.67530968 C10.10565,8.32189032 10.209775,7.91595484 10.294775,7.4582129 C10.379775,7.00047097 10.4591083,6.50369677 10.5320667,5.96647097 C10.5079833,5.9182129 10.4924,5.85363226 10.4867333,5.77414839 C10.4803583,5.69537419 10.4527333,5.58182581 10.4045667,5.43563226 C10.1849833,5.54563226 9.94485833,5.71027742 9.682775,5.93027742 C9.42069167,6.14956774 9.13735833,6.40576129 8.83348333,6.69885806 C8.43115,7.22330968 8.02315,7.65976129 7.60948333,8.00750323 C7.19510833,8.35524516 6.78710833,8.62066452 6.38548333,8.80376129 C6.117025,9.3282129 5.77348333,9.71569677 5.35344167,9.96550323 C4.9334,10.2160194 4.4489,10.3409226 3.90065,10.3409226 C3.499025,10.3409226 3.19444167,10.2465355 2.9869,10.0577613 C2.78006667,9.86827742 2.67665,9.57872903 2.67665,9.18840645 C2.67665,9.1146 2.68585833,9.02305161 2.704275,8.91305161 C2.72198333,8.80376129 2.74960833,8.67530968 2.78644167,8.52911613 C2.73756667,8.40705161 2.67665,8.23601935 2.60369167,8.01672903 C2.65185833,7.80950323 2.69506667,7.57672903 2.7319,7.32124516 C2.7319,6.95505161 2.704275,6.68040645 2.649025,6.49730968 C2.59448333,6.3142129 2.50594167,6.22266452 2.38410833,6.22266452 L2.31115,6.25956774 C2.177275,6.35750323 1.98885833,6.50369677 1.74519167,6.69885806 C1.501525,6.89401935 1.20898333,7.13176129 0.868275,7.41279355 C0.807358333,7.25382581 0.730858333,7.06505161 0.639483333,6.84505161 C0.548816667,6.62576129 0.454608333,6.36885806 0.356858333,6.07647097 C0.332066667,6.00337419 0.301608333,5.93595484 0.265483333,5.87492258 C0.22865,5.81389032 0.18615,5.76492258 0.137275,5.72872903" id="Fill-16" fill="#FFFFFF" mask="url(#mask-4)"></path>
                    </g>
                    <path d="M46,27.1100227 C46.0490885,27.07364 46.0889284,27.03166 46.1195198,26.9833829 C46.1501112,26.9358055 46.1650511,26.8756341 46.1650511,26.8035683 C46.3734993,26.6349484 46.6089818,26.4033584 46.8714984,26.1080987 C47.1347265,25.8135386 47.4313917,25.4679027 47.761494,25.0704915 C48.0304135,24.7101627 48.309293,24.3491342 48.5959982,23.9881056 C48.8834149,23.6270771 49.1928857,23.2660486 49.522988,22.9057198 C49.7919075,22.5446913 50.0579813,22.1689697 50.3212094,21.7771559 C50.5837261,21.3867413 50.8626056,21.0047228 51.1564251,20.6317999 C51.6451756,20.4037082 52.0243664,20.2413853 52.2939973,20.1441315 C52.5629169,20.0482771 52.7457537,20 52.8439306,20 C53.0274789,20 53.1683415,20.0573727 53.265807,20.1714186 C53.363984,20.2861641 53.4130725,20.4512856 53.4130725,20.6674829 C53.4130725,20.7402484 53.3945754,20.8423999 53.3575811,20.974637 C53.3212984,21.1068742 53.2779013,21.2510058 53.2295242,21.4077313 C53.144153,21.648417 53.045976,21.8947 52.9357048,22.14728 C52.8375278,22.56848 52.7215651,22.9896799 52.5871054,23.4108798 C52.4526456,23.8320798 52.3238773,24.2469827 52.2022232,24.6555886 C52.0791463,25.1733427 51.9845265,25.648417 51.9176523,26.0815113 C51.8500667,26.5146056 51.8166296,26.9113171 51.8166296,27.2723456 C51.8166296,27.9461256 51.8500667,28.4449886 51.9176523,28.7703341 C51.9845265,29.0949799 52.0791463,29.2391114 52.2022232,29.2034284 C52.3238773,29.1313626 52.4768341,29.0439041 52.6603824,28.9417527 C52.8439306,28.8396012 53.0580703,28.722057 53.3028012,28.5898198 C53.5233437,28.3610285 53.7709204,28.0783628 54.0462428,27.741123 C54.3208537,27.4045828 54.6545131,27.0078713 55.0457981,26.5502886 C55.2656292,26.2137485 55.4925745,25.8828057 55.7244998,25.5581599 C55.8105825,25.4623054 55.9108937,25.3475599 56.0275678,25.2153227 C56.1435305,25.0830855 56.250956,24.9508483 56.3484215,24.8186112 C56.5810582,24.2406857 56.8407292,23.8110897 57.1288573,23.5277243 C57.4155625,23.2457583 57.7371276,23.1037257 58.0921298,23.1037257 C58.4094264,23.1037257 58.663406,23.1429071 58.853357,23.2212699 C59.0425967,23.2996327 59.1742108,23.4171768 59.2474878,23.5732027 C59.284482,23.6571628 59.3150734,23.8012944 59.3392619,24.006297 C59.3641618,24.2106 59.3762561,24.4813713 59.3762561,24.8186112 C59.3762561,24.9508483 59.4032904,25.1425573 59.4587817,25.395837 C59.5135616,25.648417 59.5413072,25.8352283 59.5413072,25.9548714 C59.5413072,26.3998601 59.6209871,26.7343012 59.7796354,26.9567955 C59.9382837,27.1792898 60.1837261,27.290537 60.5138284,27.290537 C60.6112939,27.290537 60.727968,27.2723456 60.8624277,27.2359629 C60.9968875,27.2002799 61.1313473,27.1582998 61.265807,27.1100227 L62,28.7703341 C61.265807,29.2034284 60.6632281,29.5308728 60.1929747,29.7533672 C59.7220098,29.9765611 59.3698533,30.0871086 59.1372165,30.0871086 C58.5253891,30.0871086 58.0245442,29.9310827 57.6332592,29.6183313 C57.2412628,29.3055798 56.9538462,28.8423999 56.7710093,28.2287913 C56.7461094,28.0846598 56.6941752,27.9398286 56.6144953,27.795697 C56.5348155,27.6508658 56.4345042,27.5067343 56.3121387,27.3626028 C56.2018675,27.4829456 56.0766563,27.6270771 55.9357937,27.795697 C55.7949311,27.9643169 55.6455313,28.1322372 55.4861716,28.3008571 C55.1560694,28.6982683 54.8259671,29.0858842 54.4951534,29.4651041 C54.1650511,29.8436243 53.828546,30.2200455 53.4863495,30.5929683 C53.0580703,31.086234 52.6269453,31.4437642 52.1929747,31.6662585 C51.7582926,31.8894525 51.3513562,32 50.9728768,32 C50.4101378,32 49.9569586,31.8348784 49.6147621,31.5039356 C49.2725656,31.1729928 49.0520231,30.6825258 48.9538462,30.0332342 C48.8442863,29.4077313 48.7710093,28.9207626 48.7340151,28.5716285 C48.6977323,28.2224943 48.6913295,28.012594 48.715518,27.9398286 C48.6913295,27.5913941 48.657181,27.3269197 48.6144953,27.1457058 C48.5718097,26.9651915 48.5077812,26.8756341 48.42241,26.8756341 L48.3121387,26.9295085 L47.2663406,27.9944027 C47.2293464,28.0783628 47.1681636,28.1833129 47.0827924,28.3099528 C46.9967096,28.4365926 46.880747,28.5898198 46.734193,28.7703341 C46.6851045,28.5898198 46.5997332,28.3673255 46.4773677,28.1021515 C46.3550022,27.8383768 46.1956425,27.5067343 46,27.1100227" id="Fill-19" fill="#FFFFFF"></path>
                    <path d="M66.8933162,21.6692725 C66.6233933,21.6692725 66.2606398,22.0304357 65.8064839,22.7513029 C65.3523279,23.4728997 65.1252499,24.0026058 65.1252499,24.3418803 C65.1252499,24.4170315 65.1402456,24.4702939 65.1709512,24.5016677 C65.2016567,24.5330415 65.2666381,24.5483636 65.3644673,24.5483636 C65.4994287,24.5483636 65.6101114,24.4761309 65.6965153,24.3316656 C65.781491,24.18793 65.8621822,24.0529498 65.9357326,23.9274547 C66.0706941,23.8019596 66.2027992,23.6669794 66.3313339,23.5232437 C66.4605827,23.3787784 66.5862611,23.2372316 66.7090831,23.0993329 C66.8561839,22.9242235 66.9668666,22.7483844 67.040417,22.5725453 C67.1146815,22.3974359 67.1510997,22.2215968 67.1510997,22.0457578 C67.1510997,21.9326662 67.1296772,21.842193 67.0868323,21.7728789 C67.0432734,21.7042944 66.979006,21.6692725 66.8933162,21.6692725 M61,27.7849698 C61.1471008,27.521576 61.3377606,27.2552637 61.5705513,26.9853033 C61.804056,26.7160725 62.0989717,26.4366271 62.4545844,26.1476965 C62.4917167,25.8967063 62.5288489,25.6493642 62.5652671,25.4049406 C62.6023993,25.1597874 62.6266781,24.9124453 62.6388175,24.6614551 C62.6759497,24.485616 62.7337903,24.2791328 62.8137675,24.0405462 C62.8937446,23.8019596 62.9822908,23.5451324 63.080834,23.2686054 C63.1915167,22.992808 63.3414739,22.6476965 63.5321337,22.2340004 C63.7227935,21.8203044 63.9712939,21.3555347 64.277635,20.8411507 C64.5361325,20.5529498 64.8060554,20.2362935 65.0881177,19.891182 C65.370894,19.5460705 65.6529563,19.1980404 65.9357326,18.8463623 C66.0706941,18.7340004 66.2177949,18.6274755 66.3777492,18.5267876 C66.5369894,18.4268293 66.6969437,18.3137378 66.8561839,18.1882427 C67.0039989,18.1378987 67.1696658,18.0941213 67.3538989,18.0561809 C67.538132,18.0189702 67.7409312,18 67.9615824,18 C68.2679235,18 68.5164239,18.0313738 68.7077978,18.0941213 C68.8977435,18.1568689 69.0541274,18.2633938 69.1769494,18.4136961 C69.2626392,18.514384 69.3454727,18.6646863 69.4254499,18.8653325 C69.505427,19.0667084 69.5825478,19.311132 69.6560983,19.5993329 C69.6925164,19.8503231 69.7353613,20.1261205 69.784633,20.4274547 C69.784633,20.3523035 69.7632105,20.3836773 69.7203656,20.521576 C69.6768066,20.6594747 69.6125393,20.8790911 69.5268495,21.1804253 L69.3611825,21.782364 C69.1890888,22.3843027 68.8020566,23.0810923 68.2007998,23.8712737 C67.5988289,24.6614551 66.7890603,25.564728 65.7700657,26.5803627 C65.6836618,26.6686471 65.6101114,26.7780905 65.5487004,26.9101522 C65.4872893,27.0414843 65.4565838,27.1830311 65.4565838,27.3333333 C65.4565838,27.5974567 65.5029991,27.8287471 65.5951157,28.0293934 C65.6872322,28.2307692 65.8186233,28.3810715 65.9907169,28.4810298 C66.0892602,28.5561809 66.2456441,28.6320617 66.4605827,28.7072128 C66.6748072,28.782364 66.9297344,28.8516781 67.2246501,28.9144257 C67.7037989,28.8764853 68.1393887,28.7954972 68.5321337,28.6692725 C68.9248786,28.544507 69.2747786,28.3934751 69.5825478,28.2183656 C69.6432448,28.1804253 69.7417881,28.1271628 69.8767495,28.0578487 C70.0117109,27.9892641 70.1466724,27.8980613 70.2823479,27.7849698 C70.4415881,28.1490515 70.5829763,28.4751928 70.7057983,28.7633938 C70.8279063,29.0523244 70.9264496,29.3033146 71,29.5163644 C70.3001999,30.218991 69.6646672,30.7486971 69.094116,31.1062122 C68.5228506,31.4637273 67.9980006,31.6424849 67.5195658,31.6424849 C67.3231934,31.76798 67.0989717,31.8591828 66.847615,31.9153638 C66.5955441,31.9722743 66.2977721,32 65.9542988,32 C65.4994287,32 65.0974007,31.9314155 64.7475007,31.7927872 C64.3976007,31.6556181 64.1062554,31.4549719 63.8727506,31.1908484 C63.7499286,31.066083 63.6271065,30.8807588 63.5042845,30.6363352 C63.3821765,30.391182 63.2529277,30.1000625 63.1179663,29.760788 C63.0072836,29.4849906 62.9030277,29.2814259 62.8044844,29.1493642 C62.7066552,29.0173025 62.5959726,28.9516364 62.4731505,28.9516364 C62.3746073,28.9516364 62.2646387,28.9990619 62.1418166,29.0931832 C62.0189946,29.1873046 61.8840331,29.3281217 61.7362182,29.5163644 C61.6869466,29.3281217 61.6012568,29.0961017 61.4784347,28.8203044 C61.3563268,28.544507 61.1963725,28.1993955 61,27.7849698" id="Fill-21" fill="#FFFFFF"></path>
                    <path d="M76,30.6611806 C76,30.8137364 75.9588689,30.960595 75.8753213,31.1017566 C75.7924165,31.2435512 75.6683805,31.3796487 75.5025707,31.5100491 C75.4473008,31.673366 75.3785347,31.7955373 75.2956298,31.8771958 C75.2127249,31.9588542 75.1047558,32 74.972365,32 C74.5186375,32 74.1323907,31.8417471 73.8116967,31.5265074 C73.4916452,31.2106346 73.2371465,30.7428391 73.0494859,30.1224877 L73.1651671,30.0079126 L73,29.5837949 C73.0546272,29.4097167 73.1047558,29.2407026 73.1491003,29.0773857 C73.1928021,28.9140687 73.2371465,28.7507517 73.281491,28.5880677 C73.3367609,28.381073 73.4280206,28.2316822 73.5552699,28.1386295 C73.6818766,28.0462098 73.8284062,28 73.9942159,28 C74.281491,28 74.5494859,28.0765944 74.7982005,28.2285172 C75.0469152,28.381073 75.2705656,28.6152872 75.4691517,28.930527 C75.657455,29.2134831 75.7924165,29.4996044 75.8753213,29.7876246 C75.9588689,30.0762779 76,30.3674632 76,30.6611806" id="Fill-23" fill="#FFFFFF"></path>
                </g>
            </g>
        </g>
    </g>
</svg>